name C:\Users\u0101727\Documents\MyRepositories\upper-imu-dc\Results\main_tracking\Case_10\FLX01_angularVelocities_groundFrame.mot
datacolumns 4
datarows 82
range 2.01000000 2.82000000
endheader 
time	radius_imu_x	radius_imu_y	radius_imu_z	
          2.01000000	         -0.32134915	         -0.28044857	          1.12135727	
          2.02000000	         -0.47428115	         -0.35025517	          1.07289029	
          2.03000000	         -0.65370653	         -0.43706718	          1.01535039	
          2.04000000	         -0.82912463	         -0.52574106	          0.95685750	
          2.05000000	         -0.97231499	         -0.60048350	          0.90550835	
          2.06000000	         -1.06472639	         -0.64926689	          0.86721424	
          2.07000000	         -1.10125876	         -0.66682707	          0.84436747	
          2.08000000	         -1.08867345	         -0.65477142	          0.83597802	
          2.09000000	         -1.03938093	         -0.61867354	          0.83920794	
          2.10000000	         -0.96394652	         -0.56377956	          0.85141484	
          2.11000000	         -0.86720568	         -0.49236974	          0.87128582	
          2.12000000	         -0.75090834	         -0.40509616	          0.89815852	
          2.13000000	         -0.62057091	         -0.30540451	          0.93014321	
          2.14000000	         -0.49091275	         -0.20357438	          0.96265934	
          2.15000000	         -0.38594146	         -0.11744032	          0.98852883	
          2.16000000	         -0.33333217	         -0.06897523	          0.99969944	
          2.17000000	         -0.35517323	         -0.07765541	          0.98994541	
          2.18000000	         -0.45879354	         -0.15301042	          0.95745055	
          2.19000000	         -0.63231626	         -0.28994846	          0.90597692	
          2.20000000	         -0.84770750	         -0.46957310	          0.84389703	
          2.21000000	         -1.06941080	         -0.66481041	          0.78167970	
          2.22000000	         -1.26361435	         -0.84742838	          0.72923004	
          2.23000000	         -1.40443064	         -0.99342075	          0.69410020	
          2.24000000	         -1.47623014	         -1.08575595	          0.68076708	
          2.25000000	         -1.47319745	         -1.11495524	          0.69070143	
          2.26000000	         -1.39751849	         -1.07839188	          0.72287420	
          2.27000000	         -1.25721554	         -0.97905088	          0.77442555	
          2.28000000	         -1.06416432	         -0.82420971	          0.84131371	
          2.29000000	         -0.83252465	         -0.62430169	          0.91883632	
          2.30000000	         -0.57773823	         -0.39217578	          1.00196036	
          2.31000000	         -0.31621623	         -0.14295080	          1.08542601	
          2.32000000	         -0.06559108	          0.10556815	          1.16366179	
          2.33000000	          0.15499718	          0.33237627	          1.23065875	
          2.34000000	          0.32538397	          0.51350970	          1.28003668	
          2.35000000	          0.42636625	          0.62398802	          1.30554551	
          2.36000000	          0.44340697	          0.64201406	          1.30213425	
          2.37000000	          0.37138051	          0.55503603	          1.26746158	
          2.38000000	          0.21853699	          0.36576532	          1.20332293	
          2.39000000	          0.00704605	          0.09479156	          1.11612661	
          2.40000000	         -0.23138259	         -0.22280335	          1.01581838	
          2.41000000	         -0.46310950	         -0.54572971	          0.91363165	
          2.42000000	         -0.65974428	         -0.83559296	          0.81974243	
          2.43000000	         -0.80244370	         -1.06345763	          0.74165101	
          2.44000000	         -0.88308054	         -1.21290119	          0.68349104	
          2.45000000	         -0.90308832	         -1.27998910	          0.64613440	
          2.46000000	         -0.87096873	         -1.27108302	          0.62785402	
          2.47000000	         -0.79942569	         -1.19963703	          0.62524045	
          2.48000000	         -0.70284820	         -1.08302494	          0.63408338	
          2.49000000	         -0.59539866	         -0.93989852	          0.65006588	
          2.50000000	         -0.48961162	         -0.78807155	          0.66926491	
          2.51000000	         -0.39538512	         -0.64283401	          0.68849558	
          2.52000000	         -0.31937074	         -0.51573979	          0.70551026	
          2.53000000	         -0.26481232	         -0.41397376	          0.71904639	
          2.54000000	         -0.23183066	         -0.34035365	          0.72872640	
          2.55000000	         -0.21807307	         -0.29392310	          0.73483469	
          2.56000000	         -0.21957831	         -0.27097738	          0.73802253	
          2.57000000	         -0.23167729	         -0.26627780	          0.73901401	
          2.58000000	         -0.24977882	         -0.27421015	          0.73838505	
          2.59000000	         -0.26995938	         -0.28970936	          0.73646260	
          2.60000000	         -0.28931945	         -0.30882688	          0.73335518	
          2.61000000	         -0.30607557	         -0.32885731	          0.72908517	
          2.62000000	         -0.31940765	         -0.34807594	          0.72374876	
          2.63000000	         -0.32917319	         -0.36532396	          0.71761293	
          2.64000000	         -0.33563201	         -0.37971415	          0.71110055	
          2.65000000	         -0.33927260	         -0.39059389	          0.70468514	
          2.66000000	         -0.34075787	         -0.39774888	          0.69875429	
          2.67000000	         -0.34094305	         -0.40172007	          0.69349444	
          2.68000000	         -0.34085765	         -0.40398840	          0.68884194	
          2.69000000	         -0.34154183	         -0.40674642	          0.68454145	
          2.70000000	         -0.34374132	         -0.41219889	          0.68030898	
          2.71000000	         -0.34761217	         -0.42170480	          0.67602054	
          2.72000000	         -0.35262009	         -0.43523598	          0.67181503	
          2.73000000	         -0.35770631	         -0.45143128	          0.66805229	
          2.74000000	         -0.36162926	         -0.46814371	          0.66516367	
          2.75000000	         -0.36330180	         -0.48311262	          0.66349299	
          2.76000000	         -0.36198719	         -0.49443911	          0.66320271	
          2.77000000	         -0.35734102	         -0.50080480	          0.66424912	
          2.78000000	         -0.34937938	         -0.50157432	          0.66638659	
          2.79000000	         -0.33844865	         -0.49688984	          0.66917714	
          2.80000000	         -0.32519906	         -0.48769974	          0.67202314	
          2.81000000	         -0.31050903	         -0.47557486	          0.67425415	
          2.82000000	         -0.29531894	         -0.46224355	          0.67526915	
